<svg xmlns="http://www.w3.org/2000/svg" xmlns:xlink="http://www.w3.org/1999/xlink" version="1.1" viewBox="0 0 2320 2900" style="background: #ffffff"><defs joint-selector="defs"></defs><g  joint-selector="layers" transform="matrix(1,0,0,1,0,0)"><g ></g><g ><g   id="j_74"  transform="translate(20,2855)"><g id="v-875"><text  id="v-876" font-size="22px" xml:space="preserve" y="0.8em" font-weight="normal" text-anchor="start" fill="#aaaaaa" pointer-events="none" font-family="Open Sans"><tspan  dy="0">Sunday, May 19, 2024 at 12:40 PM Central European Summer Time</tspan></text></g></g><g   id="j_73"  transform="translate(20,2811)"><g id="v-873"><text  id="v-874" font-size="36px" xml:space="preserve" y="0.8em" font-weight="normal" text-anchor="start" fill="#000000" pointer-events="none" font-family="Open Sans"><tspan  dy="0">[Container] AIDocumentLibraryChat System</tspan></text></g></g><g   id="j_61"  transform="translate(200,200)" style=""><g  id="v-705" style="opacity: 1;"><rect  x="0" y="160" width="400" height="240" rx="70" id="v-707" stroke="#c7c7c7" stroke-width="2" pointer-events="visiblePainted" fill="#dddddd" style="fill: rgb(221, 221, 221); stroke: rgb(199, 199, 199);"></rect><circle  cx="200" cy="88.88888888888889" r="88.88888888888889" id="v-706" stroke="#c7c7c7" stroke-width="2" pointer-events="visiblePainted" fill="#dddddd" style="fill: rgb(221, 221, 221); stroke: rgb(199, 199, 199);"></circle><line  x1="80" y1="266.6666666666667" x2="80" y2="400" id="v-713" stroke="#c7c7c7" stroke-width="2" style="stroke: rgb(199, 199, 199);"></line><line  x1="320" y1="266.6666666666667" x2="320" y2="400" id="v-714" stroke="#c7c7c7" stroke-width="2" style="stroke: rgb(199, 199, 199);"></line><text  id="v-708" font-size="34" xml:space="preserve" y="0.8em" font-weight="bold" text-anchor="middle" pointer-events="visible" font-family="Open Sans" fill="#000000" transform="matrix(1,0,0,1,200,243.10000610351562)" style="fill: rgb(0, 0, 0);"><tspan  dy="0">Document User</tspan></text><text  id="v-709" font-size="17" xml:space="preserve" y="0.8em" text-anchor="middle" font-family="Open Sans" fill="#000000" transform="matrix(1,0,0,1,200,285.6000061035156)" style="fill: rgb(0, 0, 0);"><tspan  dy="0">[Person]</tspan></text><text  id="v-710" font-size="24" xml:space="preserve" display="none" y="0.8em" text-anchor="middle" font-family="Open Sans" fill="#000000" transform="matrix(1,0,0,1,200,316.8999938964844)" style="fill: rgb(0, 0, 0);"><tspan style="fill-opacity: 0; stroke-opacity: 0;"  dy="0">-</tspan></text><g  id="v-711" font-weight="normal" text-anchor="middle" color="#000000" transform="matrix(1,0,0,1,197.5,326.8999938964844)" style="fill: rgb(0, 0, 0);" display="none"><g ></g><g ></g><g ></g><g ></g></g><image  id="v-712"></image></g></g><g   id="j_62"  transform="translate(200,900)" style=""><g  id="v-715" style="opacity: 1;"><rect  x="0" y="160" width="400" height="240" rx="70" id="v-717" stroke="#c7c7c7" stroke-width="2" pointer-events="visiblePainted" fill="#dddddd" style="fill: rgb(221, 221, 221); stroke: rgb(199, 199, 199);"></rect><circle  cx="200" cy="88.88888888888889" r="88.88888888888889" id="v-716" stroke="#c7c7c7" stroke-width="2" pointer-events="visiblePainted" fill="#dddddd" style="fill: rgb(221, 221, 221); stroke: rgb(199, 199, 199);"></circle><line  x1="80" y1="266.6666666666667" x2="80" y2="400" id="v-723" stroke="#c7c7c7" stroke-width="2" style="stroke: rgb(199, 199, 199);"></line><line  x1="320" y1="266.6666666666667" x2="320" y2="400" id="v-724" stroke="#c7c7c7" stroke-width="2" style="stroke: rgb(199, 199, 199);"></line><text  id="v-718" font-size="34" xml:space="preserve" y="0.8em" font-weight="bold" text-anchor="middle" pointer-events="visible" font-family="Open Sans" fill="#000000" transform="matrix(1,0,0,1,200,243.10000610351562)" style="fill: rgb(0, 0, 0);"><tspan  dy="0">Image User</tspan></text><text  id="v-719" font-size="17" xml:space="preserve" y="0.8em" text-anchor="middle" font-family="Open Sans" fill="#000000" transform="matrix(1,0,0,1,200,285.6000061035156)" style="fill: rgb(0, 0, 0);"><tspan  dy="0">[Person]</tspan></text><text  id="v-720" font-size="24" xml:space="preserve" display="none" y="0.8em" text-anchor="middle" font-family="Open Sans" fill="#000000" transform="matrix(1,0,0,1,200,316.8999938964844)" style="fill: rgb(0, 0, 0);"><tspan style="fill-opacity: 0; stroke-opacity: 0;"  dy="0">-</tspan></text><g  id="v-721" font-weight="normal" text-anchor="middle" color="#000000" transform="matrix(1,0,0,1,197.5,326.8999938964844)" style="fill: rgb(0, 0, 0);" display="none"><g ></g><g ></g><g ></g><g ></g></g><image  id="v-722"></image></g></g><g   id="j_63"  transform="translate(200,1600)" style=""><g  id="v-725" style="opacity: 1;"><rect  x="0" y="160" width="400" height="240" rx="70" id="v-727" stroke="#c7c7c7" stroke-width="2" pointer-events="visiblePainted" fill="#dddddd" style="fill: rgb(221, 221, 221); stroke: rgb(199, 199, 199);"></rect><circle  cx="200" cy="88.88888888888889" r="88.88888888888889" id="v-726" stroke="#c7c7c7" stroke-width="2" pointer-events="visiblePainted" fill="#dddddd" style="fill: rgb(221, 221, 221); stroke: rgb(199, 199, 199);"></circle><line  x1="80" y1="266.6666666666667" x2="80" y2="400" id="v-733" stroke="#c7c7c7" stroke-width="2" style="stroke: rgb(199, 199, 199);"></line><line  x1="320" y1="266.6666666666667" x2="320" y2="400" id="v-734" stroke="#c7c7c7" stroke-width="2" style="stroke: rgb(199, 199, 199);"></line><text  id="v-728" font-size="34" xml:space="preserve" y="0.8em" font-weight="bold" text-anchor="middle" pointer-events="visible" font-family="Open Sans" fill="#000000" transform="matrix(1,0,0,1,200,243.10000610351562)" style="fill: rgb(0, 0, 0);"><tspan  dy="0">Function User</tspan></text><text  id="v-729" font-size="17" xml:space="preserve" y="0.8em" text-anchor="middle" font-family="Open Sans" fill="#000000" transform="matrix(1,0,0,1,200,285.6000061035156)" style="fill: rgb(0, 0, 0);"><tspan  dy="0">[Person]</tspan></text><text  id="v-730" font-size="24" xml:space="preserve" display="none" y="0.8em" text-anchor="middle" font-family="Open Sans" fill="#000000" transform="matrix(1,0,0,1,200,316.8999938964844)" style="fill: rgb(0, 0, 0);"><tspan style="fill-opacity: 0; stroke-opacity: 0;"  dy="0">-</tspan></text><g  id="v-731" font-weight="normal" text-anchor="middle" color="#000000" transform="matrix(1,0,0,1,197.5,326.8999938964844)" style="fill: rgb(0, 0, 0);" display="none"><g ></g><g ></g><g ></g><g ></g></g><image  id="v-732"></image></g></g><g   id="j_64"  transform="translate(200,2300)" style=""><g  id="v-735" style="opacity: 1;"><rect  x="0" y="160" width="400" height="240" rx="70" id="v-737" stroke="#c7c7c7" stroke-width="2" pointer-events="visiblePainted" fill="#dddddd" style="fill: rgb(221, 221, 221); stroke: rgb(199, 199, 199);"></rect><circle  cx="200" cy="88.88888888888889" r="88.88888888888889" id="v-736" stroke="#c7c7c7" stroke-width="2" pointer-events="visiblePainted" fill="#dddddd" style="fill: rgb(221, 221, 221); stroke: rgb(199, 199, 199);"></circle><line  x1="80" y1="266.6666666666667" x2="80" y2="400" id="v-743" stroke="#c7c7c7" stroke-width="2" style="stroke: rgb(199, 199, 199);"></line><line  x1="320" y1="266.6666666666667" x2="320" y2="400" id="v-744" stroke="#c7c7c7" stroke-width="2" style="stroke: rgb(199, 199, 199);"></line><text  id="v-738" font-size="34" xml:space="preserve" y="0.8em" font-weight="bold" text-anchor="middle" pointer-events="visible" font-family="Open Sans" fill="#000000" transform="matrix(1,0,0,1,200,243.10000610351562)" style="fill: rgb(0, 0, 0);"><tspan  dy="0">Database User</tspan></text><text  id="v-739" font-size="17" xml:space="preserve" y="0.8em" text-anchor="middle" font-family="Open Sans" fill="#000000" transform="matrix(1,0,0,1,200,285.6000061035156)" style="fill: rgb(0, 0, 0);"><tspan  dy="0">[Person]</tspan></text><text  id="v-740" font-size="24" xml:space="preserve" display="none" y="0.8em" text-anchor="middle" font-family="Open Sans" fill="#000000" transform="matrix(1,0,0,1,200,316.8999938964844)" style="fill: rgb(0, 0, 0);"><tspan style="fill-opacity: 0; stroke-opacity: 0;"  dy="0">-</tspan></text><g  id="v-741" font-weight="normal" text-anchor="middle" color="#000000" transform="matrix(1,0,0,1,197.5,326.8999938964844)" style="fill: rgb(0, 0, 0);" display="none"><g ></g><g ></g><g ></g><g ></g></g><image  id="v-742"></image></g></g><g   id="j_60"  transform="translate(880,980)" style=""><g id="v-700"><rect  id="v-701" width="1240" height="1011" rx="0" ry="0" fill="#ffffff" stroke="#c7c7c7" stroke-width="1" stroke-dasharray="20,20" pointer-events="none"></rect><text  id="v-702" font-size="24px" xml:space="preserve" y="972" font-weight="normal" fill="#c7c7c7" text-anchor="start" pointer-events="visible" font-family="Open Sans" transform="matrix(1,0,0,1,15,0)"><tspan  dy="0">AIDocumentLibraryChat System</tspan></text><text  id="v-703" font-size="17px" xml:space="preserve" y="996" font-weight="normal" fill="#c7c7c7" text-anchor="start" pointer-events="visible" font-family="Open Sans" transform="matrix(1,0,0,1,15,0)"><tspan  dy="0">[Software System]</tspan></text><image  id="v-704" pointer-events="visible"></image></g></g><g   id="j_59"  transform="translate(1650,1600)" style=""><g  id="v-692" style="opacity: 1;"><path  d="M 0,30 a 225,30 0,0,0 450 0 a 225,30 0,0,0 -450 0 l 0,240 a 225,30 0,0,0 450 0 l 0,-240" id="v-693" stroke="#c7c7c7" stroke-width="2" pointer-events="visiblePainted" fill="#dddddd" style="fill: rgb(221, 221, 221); stroke: rgb(199, 199, 199);"></path><rect  id="v-694" stroke-width="0" pointer-events="visiblePainted" fill="none" stroke="none" width="450" height="270" x="0" y="30"></rect><text  id="v-695" font-size="34" xml:space="preserve" y="0.8em" font-weight="bold" text-anchor="middle" pointer-events="visible" font-family="Open Sans" fill="#000000" transform="matrix(1,0,0,1,225,113.0999984741211)" style="fill: rgb(0, 0, 0);"><tspan  dy="0">Postgresql Db</tspan></text><text  id="v-696" font-size="17" xml:space="preserve" y="0.8em" text-anchor="middle" font-family="Open Sans" fill="#000000" transform="matrix(1,0,0,1,225,155.60000610351562)" style="fill: rgb(0, 0, 0);"><tspan  dy="0">[Container: tag]</tspan></text><text  id="v-697" font-size="24" xml:space="preserve" y="0.8em" text-anchor="middle" font-family="Open Sans" fill="#000000" transform="matrix(1,0,0,1,225,186.89999389648438)" style="fill: rgb(0, 0, 0);"><tspan  dy="0">Postgresql stores the relational and</tspan><tspan dy="1.2em" x="0" >vector data of the system.</tspan></text><g  id="v-698" font-weight="normal" text-anchor="middle" color="#000000" transform="matrix(1,0,0,1,222.5,256.8999938964844)" style="fill: rgb(0, 0, 0);" display="none"><g ></g><g ></g><g ></g><g ></g></g><image  id="v-699"></image></g></g><g   id="j_65"  transform="translate(1650,1000)" style=""><g  id="v-751" style="opacity: 1;"><rect  id="v-752" rx="1" ry="1" stroke="#c7c7c7" stroke-width="2" pointer-events="visiblePainted" fill="#dddddd" width="450" height="300" style="fill: rgb(221, 221, 221); stroke: rgb(199, 199, 199);"></rect><text  id="v-753" font-size="34" xml:space="preserve" y="0.8em" font-weight="bold" text-anchor="middle" pointer-events="visible" font-family="Open Sans" fill="#000000" transform="matrix(1,0,0,1,225,23.100000381469727)" style="fill: rgb(0, 0, 0);"><tspan  dy="0">OpenAI/Ollama AI Model</tspan></text><text  id="v-754" font-size="17" xml:space="preserve" y="0.8em" text-anchor="middle" font-family="Open Sans" fill="#000000" transform="matrix(1,0,0,1,225,65.5999984741211)" style="fill: rgb(0, 0, 0);"><tspan  dy="0">[Container]</tspan></text><text  id="v-755" font-size="24" xml:space="preserve" y="0.8em" text-anchor="middle" font-family="Open Sans" fill="#000000" transform="matrix(1,0,0,1,225,96.9000015258789)" style="fill: rgb(0, 0, 0);"><tspan  dy="0">The AI Model provides the</tspan><tspan dy="1.2em" x="0" >Embeddings(OpenAI) and Answers</tspan><tspan dy="1.2em" x="0" >to the questions based on the</tspan><tspan dy="1.2em" x="0" >documents. The OpenAI is an</tspan><tspan dy="1.2em" x="0" >external model Ollama is a local</tspan><tspan dy="1.2em" x="0" >model.</tspan></text><g  id="v-756" color="#000000" transform="matrix(1,0,0,1,222.5,286.8999938964844)" style="fill: rgb(0, 0, 0);" display="none"><g ></g><g ></g><g ></g><g ></g></g><image  id="v-757"></image></g></g><g   id="j_66"  transform="translate(900,1300)" style=""><g  id="v-764" style="opacity: 1;"><rect  id="v-765" rx="1" ry="1" stroke="#c7c7c7" stroke-width="2" pointer-events="visiblePainted" fill="#dddddd" width="450" height="300" style="fill: rgb(221, 221, 221); stroke: rgb(199, 199, 199);"></rect><text  id="v-766" font-size="34" xml:space="preserve" y="0.8em" font-weight="bold" text-anchor="middle" pointer-events="visible" font-family="Open Sans" fill="#000000" transform="matrix(1,0,0,1,225,83.0999984741211)" style="fill: rgb(0, 0, 0);"><tspan  dy="0">AIDocumentLibraryChat</tspan></text><text  id="v-767" font-size="17" xml:space="preserve" y="0.8em" text-anchor="middle" font-family="Open Sans" fill="#000000" transform="matrix(1,0,0,1,225,125.5999984741211)" style="fill: rgb(0, 0, 0);"><tspan  dy="0">[Container]</tspan></text><text  id="v-768" font-size="24" xml:space="preserve" y="0.8em" text-anchor="middle" font-family="Open Sans" fill="#000000" transform="matrix(1,0,0,1,225,156.89999389648438)" style="fill: rgb(0, 0, 0);"><tspan  dy="0">Angular Frontend and Spring Boot</tspan><tspan dy="1.2em" x="0" >Backend integrated.</tspan></text><g  id="v-769" color="#000000" transform="matrix(1,0,0,1,210,226.89999389648438)" style="fill: rgb(0, 0, 0);" display="none"><g  transform="translate(5 0)"><svg xmlns="http://www.w3.org/2000/svg" width="20" height="20" fill="currentColor" viewBox="0 0 16 16"><path fill-rule="evenodd" d="M6.5 12a5.5 5.5 0 1 0 0-11 5.5 5.5 0 0 0 0 11zM13 6.5a6.5 6.5 0 1 1-13 0 6.5 6.5 0 0 1 13 0z"></path><path d="M10.344 11.742c.03.04.062.078.098.115l3.85 3.85a1 1 0 0 0 1.415-1.414l-3.85-3.85a1.007 1.007 0 0 0-.115-.1 6.538 6.538 0 0 1-1.398 1.4z"></path><path fill-rule="evenodd" d="M6.5 3a.5.5 0 0 1 .5.5V6h2.5a.5.5 0 0 1 0 1H7v2.5a.5.5 0 0 1-1 0V7H3.5a.5.5 0 0 1 0-1H6V3.5a.5.5 0 0 1 .5-.5z"></path></svg></g><g ></g><g ></g><g ></g></g><image  id="v-770"></image></g></g><g   id="j_67" ><path  stroke="#707070" d="M 600 1703 L 900 1559" id="v-783" stroke-width="2" stroke-dasharray="30 30" fill="none" style="opacity: 1;"></path><path  fill="black" stroke="black" d="M 0 0 0 0" transform="matrix(0.9005486965179443,-0.4347551465034485,0.4347551465034485,0.9005486965179443,600,1703.449951171875)"></path><path  fill="#707070" stroke="#707070" d="M 20 0 L 0 10 L 20 20 z" id="v-785" transform="matrix(-0.9005488157272339,0.4347549080848694,-0.4347549080848694,-0.9005488157272339,904.3475341796875,1567.62548828125)" style="opacity: 1;"></path><path  d="M 600 1703 L 900 1559" id="v-784" fill="none" style="cursor: auto; pointer-events: visiblepainted;"></path><g ><g id="v-777"  label-idx="0" cursor="move" transform="matrix(1,0,0,1,750,1631)" style="cursor: default; opacity: 1;"><rect joint-selector="rect" id="v-780" fill="#ffffff" rx="3" ry="3" pointer-events="none" width="184.8058319091797" height="90.5683364868164" transform="matrix(1,0,0,1,-92.4000015258789,-45.20000076293945)"></rect><text joint-selector="text" id="v-779" font-size="24px" xml:space="preserve" y="0.8em" fill="#707070" text-anchor="middle" pointer-events="none" font-family="Open Sans" font-weight="normal" transform="matrix(1,0,0,1,0,-38.79999923706055)"><tspan  dy="0">manages the</tspan><tspan dy="1.2em" x="0" >function call and</tspan><tspan dy="1.2em" x="0" >the parameters</tspan></text></g><g id="v-778"  label-idx="1" cursor="move" transform="matrix(1,0,0,1,740,1688)" style="cursor: default; opacity: 1;"><rect joint-selector="rect" id="v-782" fill="#ffffff" rx="3" ry="3"  width="0" height="0" transform="matrix(1,0,0,1,0,0)" display="none"></rect><text joint-selector="text" id="v-781" fill="#000000" font-size="14" text-anchor="middle" pointer-events="none"></text></g></g><g  display="none" style="display: none;"></g><g  id="v-787" display="none"><g  id="v-775"><path  end="source" d="M 26 0 L 0 13 L 26 26 z"></path></g><g  id="v-776"><path  end="target" d="M 26 0 L 0 13 L 26 26 z"></path></g></g><g  id="v-786" display="none"><g  id="v-774" transform="translate(636.0609222987309, 1685.690757296609) "><g  event="remove"><circle r="11"></circle><path transform="scale(.8) translate(-16, -16)" d="M24.778,21.419 19.276,15.917 24.777,10.415 21.949,7.585 16.447,13.087 10.945,7.585 8.117,10.415 13.618,15.917 8.116,21.419 10.946,24.248 16.447,18.746 21.948,24.248z"></path><title>Remove link.</title></g><g  event="link:options"><circle r="11" transform="translate(25)"></circle><path fill="white" transform="scale(.55) translate(29, -16)" d="M31.229,17.736c0.064-0.571,0.104-1.148,0.104-1.736s-0.04-1.166-0.104-1.737l-4.377-1.557c-0.218-0.716-0.504-1.401-0.851-2.05l1.993-4.192c-0.725-0.91-1.549-1.734-2.458-2.459l-4.193,1.994c-0.647-0.347-1.334-0.632-2.049-0.849l-1.558-4.378C17.165,0.708,16.588,0.667,16,0.667s-1.166,0.041-1.737,0.105L12.707,5.15c-0.716,0.217-1.401,0.502-2.05,0.849L6.464,4.005C5.554,4.73,4.73,5.554,4.005,6.464l1.994,4.192c-0.347,0.648-0.632,1.334-0.849,2.05l-4.378,1.557C0.708,14.834,0.667,15.412,0.667,16s0.041,1.165,0.105,1.736l4.378,1.558c0.217,0.715,0.502,1.401,0.849,2.049l-1.994,4.193c0.725,0.909,1.549,1.733,2.459,2.458l4.192-1.993c0.648,0.347,1.334,0.633,2.05,0.851l1.557,4.377c0.571,0.064,1.148,0.104,1.737,0.104c0.588,0,1.165-0.04,1.736-0.104l1.558-4.377c0.715-0.218,1.399-0.504,2.049-0.851l4.193,1.993c0.909-0.725,1.733-1.549,2.458-2.458l-1.993-4.193c0.347-0.647,0.633-1.334,0.851-2.049L31.229,17.736zM16,20.871c-2.69,0-4.872-2.182-4.872-4.871c0-2.69,2.182-4.872,4.872-4.872c2.689,0,4.871,2.182,4.871,4.872C20.871,18.689,18.689,20.871,16,20.871z"></path><title>Link options.</title></g></g></g></g><g   id="j_68" ><path  stroke="#707070" d="M 600 1197 L 900 1341" id="v-800" stroke-width="2" stroke-dasharray="30 30" fill="none" style="opacity: 1;"></path><path  fill="black" stroke="black" d="M 0 0 0 0" transform="matrix(0.9005488157272339,0.4347549378871918,-0.4347549378871918,0.9005488157272339,600,1196.550048828125)"></path><path  fill="#707070" stroke="#707070" d="M 20 0 L 0 10 L 20 20 z" id="v-802" transform="matrix(-0.9005488157272339,-0.4347549080848694,0.4347549080848694,-0.9005488157272339,895.6524658203125,1350.385498046875)" style="opacity: 1;"></path><path  d="M 600 1197 L 900 1341" id="v-801" fill="none" style="cursor: auto; pointer-events: visiblepainted;"></path><g ><g id="v-794"  label-idx="0" cursor="move" transform="matrix(1,0,0,1,750,1269)" style="cursor: default; opacity: 1;"><rect joint-selector="rect" id="v-797" fill="#ffffff" rx="3" ry="3" pointer-events="none" width="195.00160217285156" height="90.5683364868164" transform="matrix(1,0,0,1,-97.5,-45.20000076293945)"></rect><text joint-selector="text" id="v-796" font-size="24px" xml:space="preserve" y="0.8em" fill="#707070" text-anchor="middle" pointer-events="none" font-family="Open Sans" font-weight="normal" transform="matrix(1,0,0,1,0,-38.79999923706055)"><tspan  dy="0">manages the</tspan><tspan dy="1.2em" x="0" >image</tspan><tspan dy="1.2em" x="0" >imports/searches</tspan></text></g><g id="v-795"  label-idx="1" cursor="move" transform="matrix(1,0,0,1,740,1326)" style="cursor: default; opacity: 1;"><rect joint-selector="rect" id="v-799" fill="#ffffff" rx="3" ry="3"  width="0" height="0" transform="matrix(1,0,0,1,0,0)" display="none"></rect><text joint-selector="text" id="v-798" fill="#000000" font-size="14" text-anchor="middle" pointer-events="none"></text></g></g><g  display="none" style="display: none;"></g><g  id="v-804" display="none"><g  id="v-792"><path  end="source" d="M 26 0 L 0 13 L 26 26 z"></path></g><g  id="v-793"><path  end="target" d="M 26 0 L 0 13 L 26 26 z"></path></g></g><g  id="v-803" display="none"><g  id="v-791" transform="translate(636.0609222987309, 1214.3092427033907) "><g  event="remove"><circle r="11"></circle><path transform="scale(.8) translate(-16, -16)" d="M24.778,21.419 19.276,15.917 24.777,10.415 21.949,7.585 16.447,13.087 10.945,7.585 8.117,10.415 13.618,15.917 8.116,21.419 10.946,24.248 16.447,18.746 21.948,24.248z"></path><title>Remove link.</title></g><g  event="link:options"><circle r="11" transform="translate(25)"></circle><path fill="white" transform="scale(.55) translate(29, -16)" d="M31.229,17.736c0.064-0.571,0.104-1.148,0.104-1.736s-0.04-1.166-0.104-1.737l-4.377-1.557c-0.218-0.716-0.504-1.401-0.851-2.05l1.993-4.192c-0.725-0.91-1.549-1.734-2.458-2.459l-4.193,1.994c-0.647-0.347-1.334-0.632-2.049-0.849l-1.558-4.378C17.165,0.708,16.588,0.667,16,0.667s-1.166,0.041-1.737,0.105L12.707,5.15c-0.716,0.217-1.401,0.502-2.05,0.849L6.464,4.005C5.554,4.73,4.73,5.554,4.005,6.464l1.994,4.192c-0.347,0.648-0.632,1.334-0.849,2.05l-4.378,1.557C0.708,14.834,0.667,15.412,0.667,16s0.041,1.165,0.105,1.736l4.378,1.558c0.217,0.715,0.502,1.401,0.849,2.049l-1.994,4.193c0.725,0.909,1.549,1.733,2.459,2.458l4.192-1.993c0.648,0.347,1.334,0.633,2.05,0.851l1.557,4.377c0.571,0.064,1.148,0.104,1.737,0.104c0.588,0,1.165-0.04,1.736-0.104l1.558-4.377c0.715-0.218,1.399-0.504,2.049-0.851l4.193,1.993c0.909-0.725,1.733-1.549,2.458-2.458l-1.993-4.193c0.347-0.647,0.633-1.334,0.851-2.049L31.229,17.736zM16,20.871c-2.69,0-4.872-2.182-4.872-4.871c0-2.69,2.182-4.872,4.872-4.872c2.689,0,4.871,2.182,4.871,4.872C20.871,18.689,18.689,20.871,16,20.871z"></path><title>Link options.</title></g></g></g></g><g   id="j_69" ><path  stroke="#707070" d="M 538 600 L 1021 1300" id="v-817" stroke-width="2" stroke-dasharray="30 30" fill="none" style="opacity: 1;"></path><path  fill="black" stroke="black" d="M 0 0 0 0" transform="matrix(0.5681880712509155,0.8228987455368042,-0.8228987455368042,0.5681880712509155,538.0999755859375,600)"></path><path  fill="#707070" stroke="#707070" d="M 20 0 L 0 10 L 20 20 z" id="v-819" transform="matrix(-0.5681881904602051,-0.8228986859321594,0.8228986859321594,-0.5681881904602051,1013.2009887695312,1305.681884765625)" style="opacity: 1;"></path><path  d="M 538 600 L 1021 1300" id="v-818" fill="none" style="cursor: auto; pointer-events: visiblepainted;"></path><g ><g id="v-811"  label-idx="0" cursor="move" transform="matrix(1,0,0,1,779.5,950)" style="cursor: default; opacity: 1;"><rect joint-selector="rect" id="v-814" fill="#ffffff" rx="3" ry="3" pointer-events="none" width="195.00160217285156" height="90.5683364868164" transform="matrix(1,0,0,1,-97.5,-45.20000076293945)"></rect><text joint-selector="text" id="v-813" font-size="24px" xml:space="preserve" y="0.8em" fill="#707070" text-anchor="middle" pointer-events="none" font-family="Open Sans" font-weight="normal" transform="matrix(1,0,0,1,0,-38.79999923706055)"><tspan  dy="0">manages the</tspan><tspan dy="1.2em" x="0" >document</tspan><tspan dy="1.2em" x="0" >imports/searches</tspan></text></g><g id="v-812"  label-idx="1" cursor="move" transform="matrix(1,0,0,1,769.5,1007)" style="cursor: default; opacity: 1;"><rect joint-selector="rect" id="v-816" fill="#ffffff" rx="3" ry="3"  width="0" height="0" transform="matrix(1,0,0,1,0,0)" display="none"></rect><text joint-selector="text" id="v-815" fill="#000000" font-size="14" text-anchor="middle" pointer-events="none"></text></g></g><g  display="none" style="display: none;"></g><g  id="v-821" display="none"><g  id="v-809"><path  end="source" d="M 26 0 L 0 13 L 26 26 z"></path></g><g  id="v-810"><path  end="target" d="M 26 0 L 0 13 L 26 26 z"></path></g></g><g  id="v-820" display="none"><g  id="v-808" transform="translate(560.717011189525, 632.9232046225) "><g  event="remove"><circle r="11"></circle><path transform="scale(.8) translate(-16, -16)" d="M24.778,21.419 19.276,15.917 24.777,10.415 21.949,7.585 16.447,13.087 10.945,7.585 8.117,10.415 13.618,15.917 8.116,21.419 10.946,24.248 16.447,18.746 21.948,24.248z"></path><title>Remove link.</title></g><g  event="link:options"><circle r="11" transform="translate(25)"></circle><path fill="white" transform="scale(.55) translate(29, -16)" d="M31.229,17.736c0.064-0.571,0.104-1.148,0.104-1.736s-0.04-1.166-0.104-1.737l-4.377-1.557c-0.218-0.716-0.504-1.401-0.851-2.05l1.993-4.192c-0.725-0.91-1.549-1.734-2.458-2.459l-4.193,1.994c-0.647-0.347-1.334-0.632-2.049-0.849l-1.558-4.378C17.165,0.708,16.588,0.667,16,0.667s-1.166,0.041-1.737,0.105L12.707,5.15c-0.716,0.217-1.401,0.502-2.05,0.849L6.464,4.005C5.554,4.73,4.73,5.554,4.005,6.464l1.994,4.192c-0.347,0.648-0.632,1.334-0.849,2.05l-4.378,1.557C0.708,14.834,0.667,15.412,0.667,16s0.041,1.165,0.105,1.736l4.378,1.558c0.217,0.715,0.502,1.401,0.849,2.049l-1.994,4.193c0.725,0.909,1.549,1.733,2.459,2.458l4.192-1.993c0.648,0.347,1.334,0.633,2.05,0.851l1.557,4.377c0.571,0.064,1.148,0.104,1.737,0.104c0.588,0,1.165-0.04,1.736-0.104l1.558-4.377c0.715-0.218,1.399-0.504,2.049-0.851l4.193,1.993c0.909-0.725,1.733-1.549,2.458-2.458l-1.993-4.193c0.347-0.647,0.633-1.334,0.851-2.049L31.229,17.736zM16,20.871c-2.69,0-4.872-2.182-4.872-4.871c0-2.69,2.182-4.872,4.872-4.872c2.689,0,4.871,2.182,4.871,4.872C20.871,18.689,18.689,20.871,16,20.871z"></path><title>Link options.</title></g></g></g></g><g   id="j_70" ><path  stroke="#707070" d="M 1350 1540 L 1650 1660" id="v-834" stroke-width="2" stroke-dasharray="30 30" fill="none" style="opacity: 1;"></path><path  fill="black" stroke="black" d="M 0 0 0 0" transform="matrix(0.9284766912460327,0.3713906705379486,-0.3713906705379486,0.9284766912460327,1350,1540)"></path><path  fill="#707070" stroke="#707070" d="M 20 0 L 0 10 L 20 20 z" id="v-836" transform="matrix(-0.9284766912460327,-0.3713906407356262,0.3713906407356262,-0.9284766912460327,1646.2860107421875,1669.2847900390625)" style="opacity: 1;"></path><path  d="M 1350 1540 L 1650 1660" id="v-835" fill="none" style="cursor: auto; pointer-events: visiblepainted;"></path><g ><g id="v-828"  label-idx="0" cursor="move" transform="matrix(1,0,0,1,1500,1600)" style="cursor: default; opacity: 1;"><rect joint-selector="rect" id="v-831" fill="#ffffff" rx="3" ry="3" pointer-events="none" width="191.09425354003906" height="119.36833953857422" transform="matrix(1,0,0,1,-95.5,-59.599998474121094)"></rect><text joint-selector="text" id="v-830" font-size="24px" xml:space="preserve" y="0.8em" fill="#707070" text-anchor="middle" pointer-events="none" font-family="Open Sans" font-weight="normal" transform="matrix(1,0,0,1,0,-53.20000076293945)"><tspan  dy="0">read/store</tspan><tspan dy="1.2em" x="0" >document/image</tspan><tspan dy="1.2em" x="0" >data and</tspan><tspan dy="1.2em" x="0" >embeddings</tspan></text></g><g id="v-829"  label-idx="1" cursor="move" transform="matrix(1,0,0,1,1490,1672)" style="cursor: default; opacity: 1;"><rect joint-selector="rect" id="v-833" fill="#ffffff" rx="3" ry="3"  width="0" height="0" transform="matrix(1,0,0,1,0,0)" display="none"></rect><text joint-selector="text" id="v-832" fill="#000000" font-size="14" text-anchor="middle" pointer-events="none"></text></g></g><g  display="none" style="display: none;"></g><g  id="v-838" display="none"><g  id="v-826"><path  end="source" d="M 26 0 L 0 13 L 26 26 z"></path></g><g  id="v-827"><path  end="target" d="M 26 0 L 0 13 L 26 26 z"></path></g></g><g  id="v-837" display="none"><g  id="v-825" transform="translate(1387.1390676354104, 1554.8556270541642) "><g  event="remove"><circle r="11"></circle><path transform="scale(.8) translate(-16, -16)" d="M24.778,21.419 19.276,15.917 24.777,10.415 21.949,7.585 16.447,13.087 10.945,7.585 8.117,10.415 13.618,15.917 8.116,21.419 10.946,24.248 16.447,18.746 21.948,24.248z"></path><title>Remove link.</title></g><g  event="link:options"><circle r="11" transform="translate(25)"></circle><path fill="white" transform="scale(.55) translate(29, -16)" d="M31.229,17.736c0.064-0.571,0.104-1.148,0.104-1.736s-0.04-1.166-0.104-1.737l-4.377-1.557c-0.218-0.716-0.504-1.401-0.851-2.05l1.993-4.192c-0.725-0.91-1.549-1.734-2.458-2.459l-4.193,1.994c-0.647-0.347-1.334-0.632-2.049-0.849l-1.558-4.378C17.165,0.708,16.588,0.667,16,0.667s-1.166,0.041-1.737,0.105L12.707,5.15c-0.716,0.217-1.401,0.502-2.05,0.849L6.464,4.005C5.554,4.73,4.73,5.554,4.005,6.464l1.994,4.192c-0.347,0.648-0.632,1.334-0.849,2.05l-4.378,1.557C0.708,14.834,0.667,15.412,0.667,16s0.041,1.165,0.105,1.736l4.378,1.558c0.217,0.715,0.502,1.401,0.849,2.049l-1.994,4.193c0.725,0.909,1.549,1.733,2.459,2.458l4.192-1.993c0.648,0.347,1.334,0.633,2.05,0.851l1.557,4.377c0.571,0.064,1.148,0.104,1.737,0.104c0.588,0,1.165-0.04,1.736-0.104l1.558-4.377c0.715-0.218,1.399-0.504,2.049-0.851l4.193,1.993c0.909-0.725,1.733-1.549,2.458-2.458l-1.993-4.193c0.347-0.647,0.633-1.334,0.851-2.049L31.229,17.736zM16,20.871c-2.69,0-4.872-2.182-4.872-4.871c0-2.69,2.182-4.872,4.872-4.872c2.689,0,4.871,2.182,4.871,4.872C20.871,18.689,18.689,20.871,16,20.871z"></path><title>Link options.</title></g></g></g></g><g   id="j_71" ><path  stroke="#707070" d="M 1350 1360 L 1650 1240" id="v-851" stroke-width="2" stroke-dasharray="30 30" fill="none" style="opacity: 1;"></path><path  fill="black" stroke="black" d="M 0 0 0 0" transform="matrix(0.9284766316413879,-0.3713908791542053,0.3713908791542053,0.9284766316413879,1350,1360)"></path><path  fill="#707070" stroke="#707070" d="M 20 0 L 0 10 L 20 20 z" id="v-853" transform="matrix(-0.9284766912460327,0.3713906407356262,-0.3713906407356262,-0.9284766912460327,1653.7138671875,1249.28466796875)" style="opacity: 1;"></path><path  d="M 1350 1360 L 1650 1240" id="v-852" fill="none" style="cursor: auto; pointer-events: visiblepainted;"></path><g ><g id="v-845"  label-idx="0" cursor="move" transform="matrix(1,0,0,1,1500,1300)" style="cursor: default; opacity: 1;"><rect joint-selector="rect" id="v-848" fill="#ffffff" rx="3" ry="3" pointer-events="none" width="161.57537841796875" height="148.16834259033203" transform="matrix(1,0,0,1,-80.80000305175781,-74)"></rect><text joint-selector="text" id="v-847" font-size="24px" xml:space="preserve" y="0.8em" fill="#707070" text-anchor="middle" pointer-events="none" font-family="Open Sans" font-weight="normal" transform="matrix(1,0,0,1,0,-67.5999984741211)"><tspan  dy="0">create</tspan><tspan dy="1.2em" x="0" >embeddings/</tspan><tspan dy="1.2em" x="0" >answers or sql</tspan><tspan dy="1.2em" x="0" >queries or</tspan><tspan dy="1.2em" x="0" >funtion calls</tspan></text></g><g id="v-846"  label-idx="1" cursor="move" transform="matrix(1,0,0,1,1490,1387)" style="cursor: default; opacity: 1;"><rect joint-selector="rect" id="v-850" fill="#ffffff" rx="3" ry="3"  width="0" height="0" transform="matrix(1,0,0,1,0,0)" display="none"></rect><text joint-selector="text" id="v-849" fill="#000000" font-size="14" text-anchor="middle" pointer-events="none"></text></g></g><g  display="none" style="display: none;"></g><g  id="v-855" display="none"><g  id="v-843"><path  end="source" d="M 26 0 L 0 13 L 26 26 z"></path></g><g  id="v-844"><path  end="target" d="M 26 0 L 0 13 L 26 26 z"></path></g></g><g  id="v-854" display="none"><g  id="v-842" transform="translate(1387.1390676354104, 1345.1443729458358) "><g  event="remove"><circle r="11"></circle><path transform="scale(.8) translate(-16, -16)" d="M24.778,21.419 19.276,15.917 24.777,10.415 21.949,7.585 16.447,13.087 10.945,7.585 8.117,10.415 13.618,15.917 8.116,21.419 10.946,24.248 16.447,18.746 21.948,24.248z"></path><title>Remove link.</title></g><g  event="link:options"><circle r="11" transform="translate(25)"></circle><path fill="white" transform="scale(.55) translate(29, -16)" d="M31.229,17.736c0.064-0.571,0.104-1.148,0.104-1.736s-0.04-1.166-0.104-1.737l-4.377-1.557c-0.218-0.716-0.504-1.401-0.851-2.05l1.993-4.192c-0.725-0.91-1.549-1.734-2.458-2.459l-4.193,1.994c-0.647-0.347-1.334-0.632-2.049-0.849l-1.558-4.378C17.165,0.708,16.588,0.667,16,0.667s-1.166,0.041-1.737,0.105L12.707,5.15c-0.716,0.217-1.401,0.502-2.05,0.849L6.464,4.005C5.554,4.73,4.73,5.554,4.005,6.464l1.994,4.192c-0.347,0.648-0.632,1.334-0.849,2.05l-4.378,1.557C0.708,14.834,0.667,15.412,0.667,16s0.041,1.165,0.105,1.736l4.378,1.558c0.217,0.715,0.502,1.401,0.849,2.049l-1.994,4.193c0.725,0.909,1.549,1.733,2.459,2.458l4.192-1.993c0.648,0.347,1.334,0.633,2.05,0.851l1.557,4.377c0.571,0.064,1.148,0.104,1.737,0.104c0.588,0,1.165-0.04,1.736-0.104l1.558-4.377c0.715-0.218,1.399-0.504,2.049-0.851l4.193,1.993c0.909-0.725,1.733-1.549,2.458-2.458l-1.993-4.193c0.347-0.647,0.633-1.334,0.851-2.049L31.229,17.736zM16,20.871c-2.69,0-4.872-2.182-4.872-4.871c0-2.69,2.182-4.872,4.872-4.872c2.689,0,4.871,2.182,4.871,4.872C20.871,18.689,18.689,20.871,16,20.871z"></path><title>Link options.</title></g></g></g></g><g   id="j_72" ><path  stroke="#707070" d="M 538 2300 L 1021 1600" id="v-868" stroke-width="2" stroke-dasharray="30 30" fill="none" style="opacity: 1;"></path><path  fill="black" stroke="black" d="M 0 0 0 0" transform="matrix(0.568187952041626,-0.822898805141449,0.822898805141449,0.568187952041626,538.0999755859375,2300)"></path><path  fill="#707070" stroke="#707070" d="M 20 0 L 0 10 L 20 20 z" id="v-870" transform="matrix(-0.5681880712509155,0.8228987455368042,-0.8228987455368042,-0.5681880712509155,1029.658935546875,1605.681884765625)" style="opacity: 1;"></path><path  d="M 538 2300 L 1021 1600" id="v-869" fill="none" style="cursor: auto; pointer-events: visiblepainted;"></path><g ><g id="v-862"  label-idx="0" cursor="move" transform="matrix(1,0,0,1,779.5,1950)" style="cursor: default; opacity: 1;"><rect joint-selector="rect" id="v-865" fill="#ffffff" rx="3" ry="3" pointer-events="none" width="182.82162475585938" height="90.5683364868164" transform="matrix(1,0,0,1,-91.4000015258789,-45.20000076293945)"></rect><text joint-selector="text" id="v-864" font-size="24px" xml:space="preserve" y="0.8em" fill="#707070" text-anchor="middle" pointer-events="none" font-family="Open Sans" font-weight="normal" transform="matrix(1,0,0,1,0,-38.79999923706055)"><tspan  dy="0">manages the sql</tspan><tspan dy="1.2em" x="0" >query creation</tspan><tspan dy="1.2em" x="0" >and execution</tspan></text></g><g id="v-863"  label-idx="1" cursor="move" transform="matrix(1,0,0,1,769.5,2007)" style="cursor: default; opacity: 1;"><rect joint-selector="rect" id="v-867" fill="#ffffff" rx="3" ry="3"  width="0" height="0" transform="matrix(1,0,0,1,0,0)" display="none"></rect><text joint-selector="text" id="v-866" fill="#000000" font-size="14" text-anchor="middle" pointer-events="none"></text></g></g><g  display="none" style="display: none;"></g><g  id="v-872" display="none"><g  id="v-860"><path  end="source" d="M 26 0 L 0 13 L 26 26 z"></path></g><g  id="v-861"><path  end="target" d="M 26 0 L 0 13 L 26 26 z"></path></g></g><g  id="v-871" display="none"><g  id="v-859" transform="translate(560.717011189525, 2267.0767953775) "><g  event="remove"><circle r="11"></circle><path transform="scale(.8) translate(-16, -16)" d="M24.778,21.419 19.276,15.917 24.777,10.415 21.949,7.585 16.447,13.087 10.945,7.585 8.117,10.415 13.618,15.917 8.116,21.419 10.946,24.248 16.447,18.746 21.948,24.248z"></path><title>Remove link.</title></g><g  event="link:options"><circle r="11" transform="translate(25)"></circle><path fill="white" transform="scale(.55) translate(29, -16)" d="M31.229,17.736c0.064-0.571,0.104-1.148,0.104-1.736s-0.04-1.166-0.104-1.737l-4.377-1.557c-0.218-0.716-0.504-1.401-0.851-2.05l1.993-4.192c-0.725-0.91-1.549-1.734-2.458-2.459l-4.193,1.994c-0.647-0.347-1.334-0.632-2.049-0.849l-1.558-4.378C17.165,0.708,16.588,0.667,16,0.667s-1.166,0.041-1.737,0.105L12.707,5.15c-0.716,0.217-1.401,0.502-2.05,0.849L6.464,4.005C5.554,4.73,4.73,5.554,4.005,6.464l1.994,4.192c-0.347,0.648-0.632,1.334-0.849,2.05l-4.378,1.557C0.708,14.834,0.667,15.412,0.667,16s0.041,1.165,0.105,1.736l4.378,1.558c0.217,0.715,0.502,1.401,0.849,2.049l-1.994,4.193c0.725,0.909,1.549,1.733,2.459,2.458l4.192-1.993c0.648,0.347,1.334,0.633,2.05,0.851l1.557,4.377c0.571,0.064,1.148,0.104,1.737,0.104c0.588,0,1.165-0.04,1.736-0.104l1.558-4.377c0.715-0.218,1.399-0.504,2.049-0.851l4.193,1.993c0.909-0.725,1.733-1.549,2.458-2.458l-1.993-4.193c0.347-0.647,0.633-1.334,0.851-2.049L31.229,17.736zM16,20.871c-2.69,0-4.872-2.182-4.872-4.871c0-2.69,2.182-4.872,4.872-4.872c2.689,0,4.871,2.182,4.871,4.872C20.871,18.689,18.689,20.871,16,20.871z"></path><title>Link options.</title></g></g></g></g></g><g ></g><g ></g><g ></g></g></svg>